<svg width="496" height="514" viewBox="0 0 496 514" fill="none" xmlns="http://www.w3.org/2000/svg">
<path d="M0 406.884C163.68 406.884 327.36 406.884 496 406.884C494.416 414.802 492.497 422.138 489.961 429.741C489.318 431.679 488.695 433.622 488.072 435.565C478.39 465.15 458.028 487.827 430.676 502.187C424.055 505.503 417.187 508.07 410 509.884C409.033 510.131 408.067 510.379 407.071 510.634C395.78 513.214 384.809 513.309 373.267 513.272C371.114 513.276 368.96 513.281 366.806 513.288C360.996 513.301 355.186 513.296 349.375 513.287C343.262 513.279 337.15 513.286 331.037 513.291C320.767 513.296 310.498 513.289 300.228 513.275C288.408 513.259 276.588 513.264 264.768 513.28C254.574 513.294 244.379 513.296 234.185 513.288C228.117 513.283 222.049 513.283 215.981 513.293C210.266 513.301 204.55 513.295 198.835 513.278C196.756 513.274 194.677 513.275 192.598 513.282C130.317 513.464 74.8123 488.289 30 445.884C28.9791 444.927 28.9791 444.927 27.9375 443.95C17.49 433.865 7.67993 421.203 0 408.884C0 408.224 0 407.564 0 406.884Z" fill="url(#paint0_linear_19_2)"/>
<path d="M249 0.883789C249.33 0.883789 249.66 0.883789 250 0.883789C250 124.964 250 249.044 250 376.884C189.28 376.884 128.56 376.884 66 376.884C71.619 363.398 71.619 363.398 74.3828 357.958C74.826 357.08 74.826 357.08 75.2782 356.184C75.9023 354.948 76.5281 353.713 77.1555 352.479C78.8443 349.156 80.5176 345.824 82.1914 342.493C82.6914 341.499 82.6914 341.499 83.2016 340.484C85.8895 335.128 88.4982 329.738 91.0625 324.321C96.4876 312.879 102.057 301.507 107.625 290.134C114.331 276.434 121.03 262.732 127.688 249.009C129.059 246.183 130.43 243.358 131.801 240.532C132.311 239.482 132.311 239.482 132.831 238.41C137.003 229.813 141.189 221.224 145.375 212.634C145.968 211.418 145.968 211.418 146.572 210.177C149.784 203.586 152.996 196.995 156.208 190.405C159.014 184.648 161.82 178.891 164.625 173.134C165.02 172.323 165.415 171.512 165.823 170.676C171.37 159.291 176.907 147.902 182.438 136.509C188.569 123.877 194.717 111.253 200.875 98.6338C201.503 97.3478 201.503 97.3478 202.143 96.0359C203.835 92.5683 205.527 89.1008 207.219 85.6332C211.316 77.2381 215.409 68.8416 219.501 60.4441C220.288 58.8293 221.075 57.2145 221.862 55.5999C226.219 46.661 230.567 37.718 234.898 28.7666C235.69 27.131 236.483 25.4954 237.275 23.8599C238.768 20.7767 240.258 17.6922 241.747 14.6069C242.416 13.2252 243.085 11.8435 243.754 10.4619C244.206 9.52269 244.206 9.52269 244.666 8.56448C245.978 5.86118 247.329 3.39094 249 0.883789Z" fill="url(#paint1_linear_19_2)"/>
<path d="M281 77.8838C283.178 80.7877 284.735 83.106 286.312 86.2783C286.968 87.5922 286.968 87.5922 287.637 88.9326C288.087 89.8446 288.536 90.7566 289 91.6963C289.419 92.5348 289.838 93.3734 290.27 94.2373C293.644 101.029 296.91 107.871 300.176 114.716C305.298 125.449 310.503 136.14 315.743 146.816C318.259 151.941 320.77 157.069 323.281 162.196C323.777 163.209 324.273 164.222 324.784 165.265C328.94 173.753 333.071 182.252 337.188 190.759C343.081 202.937 349.002 215.101 354.938 227.259C361.138 239.961 367.329 252.667 373.5 265.384C379.227 277.185 384.969 288.978 390.723 300.766C397.212 314.063 403.701 327.36 410.171 340.666C410.873 342.108 411.574 343.549 412.276 344.99C416.054 352.747 419.796 360.521 423.484 368.321C424.012 369.432 424.012 369.432 424.55 370.566C427 375.766 427 375.766 427 376.884C378.82 376.884 330.64 376.884 281 376.884C281 278.214 281 179.544 281 77.8838Z" fill="white"/>
<defs>
<linearGradient id="paint0_linear_19_2" x1="0" y1="460.09" x2="496" y2="460.09" gradientUnits="userSpaceOnUse">
<stop stop-color="#8A53FF"/>
<stop offset="1" stop-color="#613AB5"/>
</linearGradient>
<linearGradient id="paint1_linear_19_2" x1="158" y1="0.883789" x2="158" y2="376.884" gradientUnits="userSpaceOnUse">
<stop stop-color="#D2BDFF"/>
<stop offset="1" stop-color="#CABBE9"/>
</linearGradient>
</defs>
</svg>
