<svg width="813" height="491" viewBox="0 0 813 491" fill="none" xmlns="http://www.w3.org/2000/svg">
<path d="M529.878 418.613C527.606 418.613 525.384 419.287 523.495 420.549C521.605 421.812 520.132 423.606 519.263 425.706C518.393 427.806 518.166 430.116 518.609 432.345C519.052 434.573 520.146 436.621 521.753 438.228C523.36 439.835 525.408 440.929 527.636 441.372C529.865 441.816 532.176 441.588 534.275 440.718C536.375 439.849 538.169 438.376 539.432 436.487C540.694 434.597 541.368 432.376 541.368 430.103C541.368 427.056 540.158 424.133 538.003 421.978C535.848 419.824 532.925 418.613 529.878 418.613ZM529.878 437.174C528.48 437.174 527.112 436.759 525.95 435.982C524.787 435.205 523.88 434.101 523.345 432.809C522.81 431.517 522.67 430.095 522.943 428.724C523.216 427.352 523.889 426.092 524.878 425.103C525.867 424.114 527.127 423.441 528.499 423.168C529.87 422.895 531.292 423.035 532.584 423.57C533.876 424.105 534.98 425.012 535.757 426.175C536.534 427.337 536.949 428.705 536.949 430.103C536.949 431.978 536.204 433.777 534.878 435.103C533.552 436.429 531.753 437.174 529.878 437.174Z" fill="#F2F2F2"/>
<path d="M523.772 420.965C525.58 419.758 527.704 419.113 529.878 419.113C532.793 419.113 535.588 420.271 537.649 422.332C539.71 424.393 540.868 427.188 540.868 430.103C540.868 432.277 540.223 434.401 539.016 436.209C537.808 438.016 536.092 439.425 534.084 440.256C532.076 441.088 529.866 441.306 527.734 440.882C525.602 440.458 523.644 439.411 522.107 437.874C520.57 436.337 519.523 434.379 519.099 432.247C518.675 430.115 518.893 427.905 519.725 425.897C520.556 423.889 521.965 422.173 523.772 420.965ZM525.672 436.398C526.917 437.23 528.381 437.674 529.878 437.674C531.886 437.674 533.812 436.876 535.232 435.457C536.651 434.037 537.449 432.111 537.449 430.103C537.449 428.606 537.005 427.142 536.173 425.897C535.341 424.652 534.159 423.681 532.775 423.108C531.392 422.535 529.87 422.385 528.401 422.677C526.932 422.97 525.583 423.691 524.525 424.749C523.466 425.808 522.745 427.157 522.453 428.626C522.16 430.095 522.31 431.617 522.883 433C523.456 434.384 524.427 435.566 525.672 436.398Z" stroke="white" stroke-opacity="0.5" stroke-miterlimit="3.32551"/>
<path d="M485.685 409.774H529.878V453.513C529.878 455.04 529.271 456.504 528.192 457.584C527.112 458.663 525.648 459.27 524.121 459.27H491.442C489.915 459.27 488.451 458.663 487.371 457.584C486.292 456.504 485.685 455.04 485.685 453.513V409.774Z" fill="#F2F2F2"/>
<path d="M486.185 410.274H529.378V453.513C529.378 454.907 528.824 456.244 527.838 457.23C526.852 458.216 525.515 458.77 524.121 458.77H491.442C490.048 458.77 488.711 458.216 487.725 457.23C486.739 456.244 486.185 454.907 486.185 453.513V410.274Z" stroke="white" stroke-opacity="0.5" stroke-miterlimit="3.32551"/>
<path d="M583.412 460.27H0.786003C0.561788 460.216 0.362356 460.087 0.219734 459.906C0.0771119 459.725 -0.000427246 459.501 -0.000427246 459.27C-0.000427246 459.039 0.0771119 458.815 0.219734 458.634C0.362356 458.453 0.561788 458.324 0.786003 458.27H583.412C583.636 458.324 583.836 458.453 583.978 458.634C584.121 458.815 584.198 459.039 584.198 459.27C584.198 459.501 584.121 459.725 583.978 459.906C583.836 460.087 583.636 460.216 583.412 460.27Z" fill="#CACACA"/>
<path d="M583.585 459.597C583.522 459.677 583.438 459.737 583.342 459.77H0.855825C0.760206 459.737 0.675711 459.677 0.612757 459.597C0.539438 459.504 0.499573 459.389 0.499573 459.27C0.499573 459.151 0.539438 459.036 0.612757 458.943C0.675711 458.863 0.760206 458.803 0.855825 458.77H583.342C583.438 458.803 583.522 458.863 583.585 458.943C583.659 459.036 583.698 459.151 583.698 459.27C583.698 459.389 583.659 459.504 583.585 459.597Z" stroke="white" stroke-opacity="0.5" stroke-miterlimit="3.32551"/>
<path d="M735.072 155.509H550.419C549.439 155.508 548.5 155.118 547.808 154.425C547.115 153.733 546.725 152.794 546.724 151.814V117.014H548.202V151.814C548.202 152.402 548.436 152.965 548.852 153.381C549.268 153.797 549.831 154.03 550.419 154.031H735.072C735.66 154.03 736.223 153.797 736.639 153.381C737.055 152.965 737.288 152.402 737.289 151.814V116.767H738.767V151.814C738.766 152.794 738.376 153.733 737.683 154.425C736.991 155.118 736.052 155.508 735.072 155.509Z" fill="#3F3D56"/>
<path d="M547.224 151.814V117.514H547.702L547.702 151.814L547.702 151.814C547.703 152.535 547.989 153.225 548.498 153.735C549.008 154.244 549.698 154.53 550.418 154.531H550.419H735.072H735.072C735.793 154.53 736.483 154.244 736.993 153.735C737.502 153.225 737.788 152.535 737.789 151.814V151.814V117.267H738.267V151.813C738.266 152.661 737.929 153.473 737.33 154.072C736.731 154.671 735.918 155.008 735.071 155.009H550.42C549.572 155.008 548.76 154.671 548.161 154.072C547.562 153.473 547.225 152.661 547.224 151.814Z" stroke="white" stroke-opacity="0.5" stroke-miterlimit="3.32551"/>
<path d="M802.011 116.272H368.097V117.75H802.011V116.272Z" fill="#3F3D56"/>
<path d="M368.597 117.25V116.772H801.511V117.25H368.597Z" stroke="white" stroke-opacity="0.5" stroke-miterlimit="3.32551"/>
<path d="M380.339 116.896C380.339 123.64 374.872 129.107 368.128 129.107C361.384 129.107 355.917 123.64 355.917 116.896C355.917 110.152 361.384 104.685 368.128 104.685C374.872 104.685 380.339 110.152 380.339 116.896Z" fill="#38BDF8" stroke="#38BDF8" stroke-miterlimit="3.32551"/>
<path d="M509.507 116.896C509.507 123.64 504.04 129.107 497.296 129.107C490.552 129.107 485.085 123.64 485.085 116.896C485.085 110.152 490.552 104.685 497.296 104.685C504.04 104.685 509.507 110.152 509.507 116.896Z" fill="#38BDF8" stroke="#38BDF8" stroke-miterlimit="3.32551"/>
<path d="M597.169 154.256C597.169 161 591.702 166.467 584.958 166.467C578.214 166.467 572.747 161 572.747 154.256C572.747 147.512 578.214 142.045 584.958 142.045C591.702 142.045 597.169 147.512 597.169 154.256Z" fill="#3F3D56" stroke="#3F3D56" stroke-miterlimit="3.32551"/>
<path d="M651.599 166.967C658.619 166.967 664.31 161.276 664.31 154.256C664.31 147.236 658.619 141.545 651.599 141.545C644.579 141.545 638.888 147.236 638.888 154.256C638.888 161.276 644.579 166.967 651.599 166.967Z" fill="#CCCCCC"/>
<path d="M663.81 154.256C663.81 161 658.343 166.467 651.599 166.467C644.855 166.467 639.388 161 639.388 154.256C639.388 147.512 644.855 142.045 651.599 142.045C658.343 142.045 663.81 147.512 663.81 154.256Z" stroke="#CCCCCC" stroke-opacity="0.5" stroke-miterlimit="3.32551"/>
<path d="M631.517 116.896C631.517 123.64 626.05 129.107 619.306 129.107C612.562 129.107 607.095 123.64 607.095 116.896C607.095 110.152 612.562 104.685 619.306 104.685C626.05 104.685 631.517 110.152 631.517 116.896Z" fill="#38BDF8" stroke="#38BDF8" stroke-miterlimit="3.32551"/>
<path d="M812.48 116.896C812.48 123.64 807.013 129.107 800.269 129.107C793.525 129.107 788.058 123.64 788.058 116.896C788.058 110.152 793.525 104.685 800.269 104.685C807.013 104.685 812.48 110.152 812.48 116.896Z" fill="#38BDF8" stroke="#38BDF8" stroke-miterlimit="3.32551"/>
<path d="M750.239 116.896C750.239 123.64 744.772 129.107 738.028 129.107C731.284 129.107 725.817 123.64 725.817 116.896C725.817 110.152 731.284 104.685 738.028 104.685C744.772 104.685 750.239 110.152 750.239 116.896Z" fill="#38BDF8" stroke="#38BDF8" stroke-miterlimit="3.32551"/>
<path d="M573.385 15.749V0.5H595.962V15.749H573.385Z" fill="#3F3D56" stroke="#3F3D56" stroke-miterlimit="3.32551"/>
<path d="M356.933 15.749V0.5H379.51V15.749H356.933Z" fill="#38BDF8" stroke="#38BDF8" stroke-miterlimit="3.32551"/>
<path d="M459.868 0H436.291V16.249H459.868V0Z" fill="#CCCCCC"/>
<path d="M436.791 15.749V0.5H459.368V15.749H436.791Z" stroke="#CCCCCC" stroke-opacity="0.5" stroke-miterlimit="3.32551"/>
<path d="M407.544 117.749C407.348 117.749 407.16 117.671 407.021 117.533C406.883 117.394 406.805 117.206 406.805 117.01V80.535C406.806 79.5554 407.196 78.6164 407.889 77.9237C408.581 77.231 409.52 76.8413 410.5 76.84H446.467C446.663 76.84 446.851 76.9179 446.99 77.0565C447.128 77.195 447.206 77.383 447.206 77.579C447.206 77.775 447.128 77.963 446.99 78.1016C446.851 78.2402 446.663 78.318 446.467 78.318H410.5C409.912 78.3185 409.349 78.5523 408.933 78.9679C408.517 79.3836 408.283 79.9472 408.283 80.535V117.01C408.283 117.206 408.205 117.394 408.067 117.533C407.928 117.671 407.74 117.749 407.544 117.749Z" fill="#3F3D56"/>
<path d="M410.5 77.818L410.499 77.818C409.779 77.8186 409.089 78.1051 408.579 78.6144C408.07 79.1237 407.784 79.8143 407.783 80.5346V80.535V117.01C407.783 117.073 407.758 117.134 407.713 117.179C407.668 117.224 407.607 117.249 407.544 117.249C407.481 117.249 407.42 117.224 407.375 117.179C407.33 117.134 407.305 117.073 407.305 117.01V80.5354C407.306 79.6883 407.643 78.8762 408.242 78.2773C408.841 77.6783 409.653 77.3412 410.5 77.34H446.467C446.53 77.34 446.591 77.3652 446.636 77.41C446.681 77.4549 446.706 77.5157 446.706 77.579C446.706 77.6423 446.681 77.7031 446.636 77.748C446.591 77.7928 446.53 77.818 446.467 77.818L410.5 77.818Z" stroke="white" stroke-opacity="0.5" stroke-miterlimit="3.32551"/>
<path d="M448.158 90.015C455.178 90.015 460.869 84.3241 460.869 77.304C460.869 70.2839 455.178 64.593 448.158 64.593C441.138 64.593 435.447 70.2839 435.447 77.304C435.447 84.3241 441.138 90.015 448.158 90.015Z" fill="#E6E6E6"/>
<path d="M460.369 77.304C460.369 84.0479 454.902 89.515 448.158 89.515C441.414 89.515 435.947 84.0479 435.947 77.304C435.947 70.56 441.414 65.093 448.158 65.093C454.902 65.093 460.369 70.56 460.369 77.304Z" stroke="#E6E6E6" stroke-opacity="0.5" stroke-miterlimit="3.32551"/>
<path d="M692.032 117.01H690.554V80.535C690.555 79.5554 690.945 78.6164 691.638 77.9237C692.33 77.231 693.269 76.8413 694.249 76.84H730.216V78.318H694.249C693.661 78.3185 693.098 78.5523 692.682 78.9679C692.266 79.3836 692.033 79.9472 692.032 80.535V117.01Z" fill="#3F3D56"/>
<path d="M694.249 77.34H729.716V77.818L694.249 77.818L694.249 77.818C693.528 77.8186 692.838 78.1051 692.328 78.6144C691.819 79.1237 691.533 79.8143 691.532 80.5346V80.535V116.51H691.054V80.5354C691.055 79.6883 691.392 78.8762 691.991 78.2773C692.59 77.6783 693.402 77.3412 694.249 77.34Z" stroke="white" stroke-opacity="0.5" stroke-miterlimit="3.32551"/>
<path d="M731.907 90.015C738.927 90.015 744.618 84.3241 744.618 77.304C744.618 70.2839 738.927 64.593 731.907 64.593C724.887 64.593 719.196 70.2839 719.196 77.304C719.196 84.3241 724.887 90.015 731.907 90.015Z" fill="#E6E6E6"/>
<path d="M744.118 77.304C744.118 84.0479 738.651 89.515 731.907 89.515C725.163 89.515 719.696 84.0479 719.696 77.304C719.696 70.56 725.163 65.093 731.907 65.093C738.651 65.093 744.118 70.56 744.118 77.304Z" stroke="white" stroke-opacity="0.5" stroke-miterlimit="3.32551"/>
<path d="M128.691 452.223C126.849 448.032 125.102 443.212 126.945 439.023C128.146 436.553 130.211 434.61 132.749 433.561C135.26 432.537 137.907 431.884 140.607 431.623C149.08 430.511 157.654 430.394 166.155 431.274C166.775 436.181 165.465 441.158 164.339 445.899C163.317 450.265 162.732 450.911 158.227 451.138C155.313 451.297 129.381 453.768 128.691 452.223Z" fill="#FBBEBE"/>
<path d="M140.655 432.12L140.663 432.12L140.672 432.118C148.974 431.03 157.373 430.899 165.704 431.73C166.164 436.109 165.103 440.551 164.06 444.912C163.991 445.203 163.921 445.493 163.852 445.783L163.852 445.785C163.597 446.875 163.376 447.702 163.121 448.343C162.87 448.978 162.598 449.397 162.259 449.695C161.572 450.298 160.481 450.523 158.202 450.638L158.2 450.638C157.663 450.668 156.364 450.774 154.601 450.918C153.94 450.971 153.214 451.031 152.439 451.093C149.589 451.323 146.056 451.598 142.593 451.82C139.128 452.042 135.743 452.211 133.184 452.227C131.902 452.236 130.843 452.206 130.09 452.129C129.71 452.09 129.43 452.041 129.244 451.987C129.183 451.969 129.141 451.953 129.113 451.941C128.208 449.875 127.347 447.693 126.927 445.527C126.503 443.339 126.535 441.202 127.399 439.233C128.547 436.878 130.517 435.024 132.939 434.023C135.405 433.018 138.004 432.377 140.655 432.12ZM129.074 451.92C129.074 451.92 129.075 451.921 129.077 451.922C129.075 451.921 129.074 451.92 129.074 451.92Z" stroke="white" stroke-opacity="0.5" stroke-miterlimit="3.32551"/>
<path d="M347.098 363.085C337.799 359.078 327.618 357.672 317.586 356.301L347.098 363.085ZM347.098 363.085C351.464 364.954 355.62 367.451 358.571 371.127L347.098 363.085ZM308.316 357.087L308.429 357.097L308.535 357.056C311.305 356 314.38 356.374 317.519 356.796C327.563 358.169 337.675 359.569 346.9 363.544L346.901 363.545C351.231 365.398 355.302 367.854 358.18 371.439C360.741 374.675 362.245 378.65 363.701 382.649L363.702 382.649L367.055 391.834L367.058 391.844L367.062 391.854C368.47 395.263 369.44 398.838 369.95 402.491C370.968 413.221 363.619 423.422 354.263 429.072C345.229 434.527 334.64 436.602 324.149 438.657C323.763 438.733 323.377 438.809 322.992 438.884C312.142 441.015 301.248 443.375 290.443 445.873L290.443 445.873L290.43 445.876C285.413 447.178 280.323 448.179 275.187 448.876C271.051 449.344 266.858 449.395 262.644 449.446C261 449.466 259.353 449.486 257.705 449.531C251.854 449.69 246.023 450.164 240.456 452.1L240.455 452.1C238.822 452.672 237.194 453.349 235.577 454.021C235.017 454.254 234.458 454.486 233.901 454.714C231.724 455.602 229.551 456.421 227.328 456.939C224.338 457.568 221.315 458.028 218.273 458.317L218.263 458.318L197.474 460.693L197.474 460.693L197.465 460.694C193.258 461.257 189.022 461.582 184.778 461.668C175.769 461.667 166.896 459.536 158.071 457.382L158.055 457.378L158.039 457.375C157.176 457.224 156.355 456.894 155.628 456.407C155.04 455.939 154.663 455.281 154.409 454.5C154.151 453.708 154.03 452.825 153.93 451.944L153.93 451.943C153.04 444.142 152.26 436.332 151.591 428.514C151.379 425.945 151.253 423.374 152.533 421.401C154.144 418.987 157.326 418.183 160.456 417.672L160.456 417.672C173.606 415.521 186.927 414.597 200.248 414.911L200.462 414.916L200.614 414.764C203.054 412.324 206.307 411.076 209.846 410.096C210.883 409.808 211.95 409.543 213.026 409.275C215.575 408.641 218.172 407.995 220.534 407.015L220.542 407.011L220.551 407.007C223.013 405.876 225.396 404.581 227.683 403.129C239.499 396.237 252.702 392.065 266.333 390.916C269.051 390.832 271.751 390.446 274.383 389.766L274.395 389.763L274.407 389.759C275.731 389.347 277.016 388.762 278.268 388.143C278.741 387.909 279.206 387.672 279.666 387.437C280.439 387.044 281.201 386.655 281.974 386.295C284.427 385.152 286.796 384.392 289.273 384.891L289.696 384.976L289.842 384.571C289.988 384.17 290.124 383.739 290.259 383.31C290.28 383.243 290.301 383.176 290.322 383.11C290.48 382.61 290.641 382.113 290.827 381.637C291.201 380.677 291.654 379.859 292.309 379.321L292.315 379.316C292.622 379.055 292.961 378.832 293.329 378.59C293.377 378.559 293.424 378.527 293.473 378.496C293.884 378.224 294.325 377.923 294.708 377.545L294.713 377.54C296.343 375.89 296.445 373.353 296.225 371.277C296.177 370.818 296.119 370.381 296.061 369.951C295.983 369.361 295.906 368.784 295.858 368.18C295.777 367.171 295.791 366.206 296.035 365.282C296.243 364.568 296.55 363.887 296.946 363.257L296.95 363.249L296.955 363.241C298.226 361.046 299.807 359.409 301.687 358.37C303.565 357.333 305.769 356.876 308.316 357.087Z" fill="#464353" stroke="#42404F" stroke-miterlimit="3.32551"/>
<path opacity="0.05" d="M347.098 363.085C337.799 359.078 327.618 357.672 317.586 356.301L347.098 363.085ZM347.098 363.085C351.464 364.954 355.62 367.451 358.571 371.127L347.098 363.085ZM308.316 357.087L308.429 357.097L308.535 357.056C311.305 356 314.38 356.374 317.519 356.796C327.563 358.169 337.675 359.569 346.9 363.544L346.901 363.545C351.231 365.398 355.302 367.854 358.18 371.439C360.741 374.675 362.245 378.65 363.701 382.649L363.702 382.649L367.055 391.834L367.058 391.844L367.062 391.854C368.47 395.263 369.44 398.838 369.95 402.491C370.968 413.221 363.619 423.422 354.263 429.072C345.229 434.527 334.64 436.602 324.149 438.657C323.763 438.733 323.377 438.809 322.992 438.884C312.142 441.015 301.248 443.375 290.443 445.873L290.443 445.873L290.43 445.876C285.413 447.178 280.323 448.179 275.187 448.876C271.051 449.344 266.858 449.395 262.644 449.446C261 449.466 259.353 449.486 257.705 449.531C251.854 449.69 246.023 450.164 240.456 452.1L240.455 452.1C238.822 452.672 237.194 453.349 235.577 454.021C235.017 454.254 234.458 454.486 233.901 454.714C231.724 455.602 229.551 456.421 227.328 456.939C224.338 457.568 221.315 458.028 218.273 458.317L218.263 458.318L197.474 460.693L197.474 460.693L197.465 460.694C193.258 461.257 189.022 461.582 184.778 461.668C175.769 461.667 166.896 459.536 158.071 457.382L158.055 457.378L158.039 457.375C157.176 457.224 156.355 456.894 155.628 456.407C155.04 455.939 154.663 455.281 154.409 454.5C154.151 453.708 154.03 452.825 153.93 451.944L153.93 451.943C153.04 444.142 152.26 436.332 151.591 428.514C151.379 425.945 151.253 423.374 152.533 421.401C154.144 418.987 157.326 418.183 160.456 417.672L160.456 417.672C173.606 415.521 186.927 414.597 200.248 414.911L200.462 414.916L200.614 414.764C203.054 412.324 206.307 411.076 209.846 410.096C210.883 409.808 211.95 409.543 213.026 409.275C215.575 408.641 218.172 407.995 220.534 407.015L220.542 407.011L220.551 407.007C223.013 405.876 225.396 404.581 227.683 403.129C239.499 396.237 252.702 392.065 266.333 390.916C269.051 390.832 271.751 390.446 274.383 389.766L274.395 389.763L274.407 389.759C275.731 389.347 277.016 388.762 278.268 388.143C278.741 387.909 279.206 387.672 279.666 387.437C280.439 387.044 281.201 386.655 281.974 386.295C284.427 385.152 286.796 384.392 289.273 384.891L289.696 384.976L289.842 384.571C289.988 384.17 290.124 383.739 290.259 383.31C290.28 383.243 290.301 383.176 290.322 383.11C290.48 382.61 290.641 382.113 290.827 381.637C291.201 380.677 291.654 379.859 292.309 379.321L292.315 379.316C292.622 379.055 292.961 378.832 293.329 378.59C293.377 378.559 293.424 378.527 293.473 378.496C293.884 378.224 294.325 377.923 294.708 377.545L294.713 377.54C296.343 375.89 296.445 373.353 296.225 371.277C296.177 370.818 296.119 370.381 296.061 369.951C295.983 369.361 295.906 368.784 295.858 368.18C295.777 367.171 295.791 366.206 296.035 365.282C296.243 364.568 296.55 363.887 296.946 363.257L296.95 363.249L296.955 363.241C298.226 361.046 299.807 359.409 301.687 358.37C303.565 357.333 305.769 356.876 308.316 357.087Z" fill="black" stroke="#42404F" stroke-miterlimit="3.32551"/>
<path d="M141.094 447.934C140.306 451.368 138.696 454.56 136.403 457.234L136.398 457.237L136.345 457.298C133.673 460.396 131.188 462.464 128.354 463.741C125.521 465.017 122.296 465.521 118.112 465.42L118.112 465.42C112.919 465.298 107.733 465.028 102.553 464.61C98.9859 464.224 95.3989 464.056 91.8116 464.108L91.8116 464.108L91.7994 464.108C87.0191 464.294 82.3126 465.359 77.6701 466.41C77.0252 466.556 76.3815 466.702 75.7391 466.845C70.4497 468.022 65.2285 469.023 59.9369 468.597L59.936 468.597C58.3818 468.475 56.8447 468.189 55.3506 467.743L55.3507 467.743L55.3406 467.741C52.998 467.095 50.8801 465.813 49.2221 464.037C47.3395 461.661 46.1309 458.822 45.7233 455.818L45.7217 455.807L45.7196 455.795C42.8847 440.339 50.6611 423.488 64.2681 415.618L64.2787 415.612L64.289 415.606C66.0161 414.491 67.9783 413.792 70.0211 413.564C72.0256 413.56 74.0067 413.997 75.8234 414.845L75.8367 414.851L75.8503 414.856L75.9784 414.907C81.5124 417.185 86.539 420.539 90.7663 424.774C91.4516 425.556 92.268 426.212 93.1789 426.713L93.21 426.73L93.2433 426.742C94.1573 427.087 95.1246 427.269 96.1014 427.28L107.561 428.005L107.57 428.005L107.578 428.005C109.478 428.062 111.367 428.322 113.213 428.78C115.263 429.497 117.259 430.36 119.185 431.363L119.198 431.37L119.212 431.376C124.564 433.768 130.417 434.657 136.153 435.528C137.115 435.674 138.074 435.819 139.026 435.971L139.051 435.975L139.077 435.977C139.595 436.006 140.09 436.199 140.49 436.528C140.692 436.79 140.833 437.094 140.903 437.418L140.906 437.43L140.909 437.442C141.825 440.872 141.889 444.474 141.094 447.934Z" fill="#3F3D56" stroke="#3F3D56" stroke-miterlimit="3.32551"/>
<path d="M298.367 436.176C304.785 436.001 311.988 435.676 316.703 440C321.203 444.086 321.793 450.827 322.09 456.9L322.431 463.946C322.698 466.088 322.468 468.262 321.759 470.302C320.222 473.795 316.005 475.48 312.159 475.279C308.313 475.078 304.772 473.393 301.254 471.874C291.701 467.758 281.754 464.625 271.567 462.523C271.901 457.651 272.454 452.802 273.226 447.977C273.759 444.633 273.846 439.036 276.081 436.26C278.447 433.326 281.529 434.915 284.743 435.46C289.252 436.148 293.817 436.391 298.373 436.185L298.367 436.176Z" fill="#FFB9B9"/>
<path d="M298.396 436.684L298.915 436.661C301.973 436.576 305.136 436.489 308.106 436.896C311.242 437.325 314.11 438.3 316.365 440.368L316.367 440.37C318.52 442.325 319.756 444.93 320.488 447.827C321.222 450.729 321.442 453.888 321.591 456.924L321.932 463.97L321.933 463.989L321.935 464.007C322.191 466.067 321.972 468.157 321.294 470.118C319.865 473.339 315.906 474.974 312.185 474.779C308.773 474.601 305.603 473.221 302.373 471.814C302.067 471.681 301.76 471.547 301.453 471.415L301.452 471.414C292.002 467.343 282.167 464.23 272.097 462.122C272.432 457.411 272.973 452.723 273.72 448.056L273.72 448.055C273.84 447.303 273.937 446.441 274.04 445.538C274.053 445.42 274.066 445.301 274.08 445.182C274.198 444.144 274.327 443.056 274.509 441.989C274.875 439.834 275.44 437.854 276.471 436.573C277.012 435.902 277.578 435.508 278.158 435.288C278.743 435.065 279.374 435.008 280.061 435.054C280.752 435.1 281.478 435.25 282.254 435.429C282.411 435.465 282.57 435.503 282.731 435.541C283.355 435.688 284.006 435.842 284.66 435.953L284.66 435.953L284.668 435.954C289.209 436.647 293.807 436.892 298.396 436.684Z" stroke="white" stroke-opacity="0.5" stroke-miterlimit="3.32551"/>
<path d="M392.416 489.873L392.416 489.873C384.788 490.347 377.238 488.236 369.777 486.119L369.776 486.119L359.675 483.27C357.912 482.715 356.105 482.313 354.273 482.066L354.257 482.064L354.24 482.063C351.751 481.897 349.252 481.982 346.781 482.318C334.879 483.424 322.882 482.885 311.128 480.716L311.11 480.713L311.091 480.711C310.198 480.614 309.34 480.312 308.584 479.829C307.896 479.149 307.284 478.396 306.76 477.584L306.743 477.558L306.724 477.535C306.32 477.049 305.894 476.573 305.493 476.124C305.217 475.817 304.954 475.522 304.717 475.246C304.11 474.539 303.621 473.894 303.313 473.237C303.01 472.592 302.883 471.941 303.002 471.21C303.123 470.468 303.502 469.604 304.286 468.554L304.287 468.553C305.066 467.502 306.138 466.68 307.28 465.805C307.438 465.684 307.598 465.562 307.758 465.438C309.046 464.441 310.367 463.338 311.151 461.773C311.94 460.201 312.066 458.335 311.903 456.52C311.739 454.701 311.279 452.881 310.844 451.37C310.22 449.175 308.882 447.616 307.593 446.175C307.525 446.099 307.457 446.024 307.39 445.949C306.158 444.575 305.011 443.295 304.389 441.593C303.456 439.012 305.022 435.903 307.51 434.423C309.995 432.945 313.108 432.809 316.095 433.205C317.362 433.372 318.617 433.62 319.89 433.872C320.12 433.917 320.35 433.963 320.582 434.008C322.085 434.302 323.613 434.58 325.167 434.7C329.057 435.011 332.986 434.333 336.819 433.672C337.476 433.559 338.13 433.446 338.781 433.339C343.263 432.6 347.601 432.117 351.78 433.38C352.617 433.635 353.435 433.958 354.275 434.291C354.361 434.325 354.448 434.359 354.534 434.393C355.458 434.757 356.411 435.123 357.403 435.385L357.412 435.388L357.421 435.39C361.263 436.249 365.276 435.903 368.914 434.398C370.148 433.935 371.356 433.381 372.536 432.84L372.65 432.787L372.661 432.782L372.673 432.776C374.987 431.571 377.452 430.679 380.002 430.124C384.05 429.432 387.976 430.48 391.698 432.427C395.426 434.377 398.916 437.212 402.073 440.037L402.08 440.044L402.087 440.05C404.221 441.82 406.109 443.867 407.704 446.134C409.299 448.89 410.455 451.878 411.13 454.991L411.133 455.007L411.138 455.023C413.457 463.119 415.3 472.025 411.408 479.247C408.563 484.522 403.017 487.845 396.998 489.22C395.491 489.561 393.959 489.779 392.416 489.873Z" fill="#3F3D56" stroke="#3F3D56" stroke-miterlimit="3.32551"/>
<path d="M330.803 389.025C330.803 393.588 327.492 398.051 321.215 402.202C314.958 406.34 305.871 410.085 294.598 413.239C272.058 419.544 240.891 423.45 206.444 423.45C171.997 423.45 140.83 419.544 118.29 413.239C107.017 410.085 97.9297 406.34 91.6728 402.202C85.3963 398.051 82.085 393.588 82.085 389.025C82.085 384.461 85.3963 379.998 91.6728 375.847C97.9297 371.709 107.017 367.964 118.29 364.81C140.83 358.506 171.997 354.6 206.444 354.6C240.891 354.6 272.058 358.506 294.598 364.81C305.871 367.964 314.958 371.709 321.215 375.847C327.492 379.998 330.803 384.461 330.803 389.025Z" fill="#464353" stroke="#3F3C4B" stroke-miterlimit="3.32551"/>
<path opacity="0.1" d="M330.803 389.025C330.803 393.588 327.492 398.051 321.215 402.202C314.958 406.34 305.871 410.085 294.598 413.239C272.058 419.544 240.891 423.45 206.444 423.45C171.997 423.45 140.83 419.544 118.29 413.239C107.017 410.085 97.9297 406.34 91.6728 402.202C85.3963 398.051 82.085 393.588 82.085 389.025C82.085 384.461 85.3963 379.998 91.6728 375.847C97.9297 371.709 107.017 367.964 118.29 364.81C140.83 358.506 171.997 354.6 206.444 354.6C240.891 354.6 272.058 358.506 294.598 364.81C305.871 367.964 314.958 371.709 321.215 375.847C327.492 379.998 330.803 384.461 330.803 389.025Z" fill="black" stroke="#3F3C4B" stroke-miterlimit="3.32551"/>
<path d="M228.831 204.654C224.552 212.926 217.444 219.385 208.801 222.854C203.699 224.713 198.329 225.733 192.901 225.875C186.972 226.146 180.922 225.762 175.351 223.736C167.877 221.029 161.669 215.494 157.015 209.041C152.361 202.588 149.157 195.219 146.371 187.789C144.904 183.921 143.507 179.8 144.197 175.714C148.697 174.692 153.618 173.191 155.941 169.2C157.923 165.777 157.373 161.674 156.229 157.762C155.906 156.653 155.529 155.553 155.155 154.496C154.282 151.964 151.27 147.153 153.409 144.988C154.745 143.617 160.342 142.919 162.271 142.028C168.217 139.286 173.7 135.322 180.231 134.021C185.88 132.895 191.713 133.951 197.353 135.121C198.101 135.23 198.82 135.488 199.466 135.881C200.203 136.502 200.748 137.319 201.038 138.238C202.645 142.15 203.588 146.472 204.88 150.549C206.225 154.819 207.953 158.826 211.193 161.856C213.716 164.222 216.93 165.707 220.073 167.147L227.809 170.692C229.185 171.207 230.433 172.015 231.467 173.058C232.479 174.449 233.083 176.093 233.213 177.808C234.599 186.996 233.066 196.387 228.83 204.657L228.831 204.654Z" fill="#FFB9B9"/>
<path d="M228.387 204.425C232.574 196.249 234.089 186.965 232.719 177.883L232.716 177.864L232.715 177.846C232.593 176.236 232.029 174.692 231.085 173.383C230.107 172.404 228.93 171.646 227.634 171.16L227.617 171.154L227.601 171.147L219.865 167.602C216.735 166.167 213.443 164.652 210.851 162.221C207.515 159.101 205.755 154.992 204.403 150.699C203.941 149.242 203.529 147.773 203.118 146.311C202.361 143.618 201.612 140.951 200.576 138.428L200.568 138.409L200.561 138.389C200.304 137.572 199.823 136.845 199.173 136.288C198.593 135.942 197.95 135.713 197.281 135.616L197.266 135.614L197.252 135.611C191.604 134.439 185.865 133.408 180.329 134.511L180.329 134.511C177.13 135.149 174.175 136.44 171.259 137.93C170.186 138.478 169.109 139.057 168.028 139.64C166.198 140.625 164.353 141.619 162.481 142.482L228.387 204.425ZM228.387 204.425L228.387 204.424C224.164 212.587 217.15 218.961 208.622 222.387C203.573 224.226 198.26 225.235 192.888 225.375L192.878 225.376C186.981 225.645 181.005 225.26 175.522 223.266L175.521 223.266C168.168 220.603 162.034 215.146 157.421 208.749C152.806 202.351 149.621 195.032 146.839 187.614L146.839 187.612C145.408 183.841 144.1 179.955 144.639 176.126C146.799 175.626 149.07 174.998 151.102 174.021C153.242 172.992 155.146 171.561 156.373 169.452L156.374 169.451C158.466 165.837 157.859 161.555 156.709 157.622C156.382 156.5 156.002 155.39 155.627 154.331C155.427 153.75 155.12 153.058 154.799 152.334C154.756 152.238 154.713 152.142 154.671 152.045C154.299 151.204 153.916 150.317 153.627 149.447C153.337 148.573 153.152 147.75 153.157 147.034C153.161 146.327 153.348 145.762 153.765 145.34L153.767 145.337C154.016 145.081 154.522 144.812 155.258 144.542C155.975 144.279 156.84 144.041 157.74 143.813C158.132 143.714 158.538 143.615 158.939 143.517C159.441 143.395 159.935 143.275 160.386 143.158C161.201 142.946 161.953 142.726 162.481 142.482L228.387 204.425Z" stroke="white" stroke-opacity="0.5" stroke-miterlimit="3.32551"/>
<path d="M215.548 120.973C215.548 142.878 197.79 160.637 175.884 160.637C153.978 160.637 136.22 142.878 136.22 120.973C136.22 99.0668 153.978 81.3086 175.884 81.3086C197.79 81.3086 215.548 99.0668 215.548 120.973Z" fill="#FFB9B9" stroke="#FFB9B9" stroke-miterlimit="3.32551"/>
<path d="M297.759 251.406L297.759 251.405L294.459 231.411L297.759 251.406ZM297.759 251.406C299.054 259.204 299.466 266.815 299.722 274.451C299.777 276.108 299.825 277.767 299.873 279.429C300.047 285.418 300.221 291.45 300.747 297.603L297.759 251.406ZM218.676 190.607L218.676 190.607C216.484 195.307 213.27 199.458 209.269 202.756C205.267 206.054 200.579 208.416 195.547 209.669C190.515 210.922 185.267 211.035 180.186 210C175.105 208.964 170.319 206.806 166.18 203.683C158.286 197.738 153.25 188.585 150.907 179.052C150.621 177.889 150.327 176.7 149.853 175.669C149.382 174.645 148.756 173.831 147.835 173.373L147.834 173.372C146.839 172.873 145.723 172.911 144.588 173.299C143.452 173.689 142.337 174.419 141.404 175.237C140.924 175.668 139.863 176.353 138.428 177.207C136.974 178.073 135.09 179.139 132.926 180.334C129.037 182.483 124.232 185.06 119.378 187.663C118.831 187.955 118.285 188.249 117.738 188.542C112.335 191.44 106.991 194.316 102.886 196.622C100.833 197.776 99.0959 198.785 97.8186 199.581C97.1795 199.979 96.6617 200.321 96.2794 200.598C95.8766 200.89 95.6801 201.073 95.6229 201.153C93.9921 203.442 93.173 206.266 92.3415 209.134C92.3124 209.234 92.2833 209.335 92.2541 209.435C97 220.009 101.546 230.588 106.09 241.164L106.091 241.166C110.657 251.793 115.222 262.415 119.988 273.031C120.469 273.9 120.725 274.877 120.731 275.871L120.731 275.922L120.721 275.972C120.516 276.991 120.084 277.95 119.456 278.777C114.883 286.14 115.01 295.43 115.527 304.274C115.537 304.453 115.548 304.633 115.558 304.813C116.065 313.46 116.608 322.717 112.676 330.613C112.676 330.614 112.675 330.614 112.675 330.615L112.228 330.392L218.676 190.607ZM218.676 190.607C221.989 183.495 222.795 175.544 223.518 167.844C227.764 166.463 232.569 168.139 236.537 170.624C237.598 171.288 239.621 172.233 242.075 173.324M218.676 190.607L242.075 173.324M286.459 202.265C285.741 200.878 284.098 199.154 281.944 197.297C279.805 195.454 277.216 193.526 274.668 191.728C272.365 190.103 270.102 188.589 268.241 187.344C268.043 187.212 267.85 187.083 267.662 186.957C266.684 186.303 265.837 185.733 265.189 185.279C264.559 184.837 264.069 184.473 263.843 184.238L286.459 202.265ZM286.459 202.265C291.078 211.22 292.789 221.365 294.459 231.41L286.459 202.265ZM242.075 173.324C243.243 173.843 244.517 174.399 245.844 174.979M242.075 173.324L245.844 174.979M245.844 174.979L246.07 175.077M245.844 174.979L246.07 175.077M246.07 175.077C247.479 175.693 248.946 176.333 250.409 176.985M246.07 175.077L250.409 176.985M250.409 176.985C253.338 178.288 256.248 179.63 258.66 180.891M250.409 176.985L258.66 180.891M258.66 180.891C261.093 182.161 262.954 183.317 263.842 184.237L258.66 180.891Z" fill="#38BDF8" stroke="#38BDF8" stroke-miterlimit="3.32551"/>
<path d="M76.6 274.2C76.2523 276.727 76.2188 279.287 76.5001 281.822L79.0061 317.856C79.2421 321.256 79.4771 324.64 79.7921 328.028C80.3921 334.603 81.2921 341.128 82.4111 347.639C82.4354 348.564 82.8261 349.442 83.4974 350.08C84.1687 350.717 85.0656 351.062 85.9911 351.039C97.0361 353.379 108.448 353.283 119.72 352.646C136.92 351.686 154.095 349.494 171.32 349.869C175.756 349.969 180.92 349.869 183.614 346.377C186.308 342.885 184.74 337.235 181.23 334.415C177.72 331.595 172.953 330.923 168.447 330.923C162.483 330.862 156.52 331.709 150.574 331.36C145.133 330.872 139.749 329.881 134.491 328.4L119.648 324.707C120.216 320.207 121.927 315.976 123.548 311.707C126.464 304.137 129.188 296.314 129.241 288.207C129.294 280.1 126.241 271.565 119.593 266.92C114.127 263.104 107.093 262.397 100.428 262.554C95.5821 262.694 87.2091 261.532 82.7821 263.427C79.2801 264.953 77.255 270.768 76.6 274.2Z" fill="#FFB9B9"/>
<path d="M134.491 328.4L119.648 324.707C120.172 320.555 121.669 316.633 123.171 312.698C123.297 312.368 123.423 312.037 123.548 311.707C126.464 304.137 129.188 296.314 129.241 288.207C129.294 280.1 126.241 271.565 119.593 266.92M134.491 328.4L134.356 328.881C134.358 328.882 134.361 328.883 134.363 328.883M134.491 328.4L134.37 328.885L134.363 328.883M134.491 328.4C139.749 329.881 145.133 330.872 150.574 331.36C153.953 331.558 157.337 331.37 160.724 331.182C163.297 331.04 165.872 330.897 168.447 330.923C172.953 330.923 177.72 331.595 181.23 334.415C184.74 337.235 186.308 342.885 183.614 346.377C180.92 349.869 175.756 349.969 171.32 349.869C159.681 349.616 148.065 350.534 136.449 351.453C130.874 351.894 125.298 352.335 119.72 352.646C108.448 353.283 97.0361 353.379 85.9911 351.039C85.0656 351.062 84.1687 350.717 83.4974 350.08C82.8261 349.442 82.4354 348.564 82.4111 347.639C81.2921 341.128 80.3921 334.603 79.7921 328.028C79.4771 324.64 79.2421 321.256 79.0061 317.856L76.5001 281.822C76.2188 279.287 76.2523 276.727 76.6 274.2M134.363 328.883L119.527 325.192L119.096 325.085L119.152 324.644C119.684 320.43 121.202 316.452 122.7 312.529C122.827 312.195 122.954 311.862 123.081 311.529L123.081 311.527C125.998 303.956 128.689 296.21 128.741 288.204C128.793 280.201 125.777 271.851 119.307 267.33M134.363 328.883C139.649 330.371 145.06 331.367 150.529 331.858L150.537 331.859L150.545 331.859C153.548 332.035 156.55 331.909 159.531 331.749C159.939 331.727 160.346 331.704 160.754 331.682C163.328 331.539 165.885 331.397 168.442 331.423H168.447C172.925 331.423 177.545 332.096 180.917 334.805C182.578 336.14 183.79 338.156 184.261 340.253C184.731 342.35 184.452 344.473 183.218 346.072C181.971 347.688 180.135 348.545 178.02 348.98C175.899 349.417 173.55 349.419 171.331 349.369L171.331 349.369C159.667 349.115 148.007 350.037 136.377 350.957C130.808 351.397 125.245 351.837 119.692 352.147L119.692 352.147C108.431 352.783 97.0728 352.876 86.0947 350.55L86.0372 350.538L85.9784 350.539C85.1854 350.559 84.4169 350.264 83.8417 349.717C83.2666 349.171 82.9317 348.419 82.9109 347.626L82.9099 347.59L82.9038 347.554C81.7867 341.054 80.8886 334.542 80.29 327.983L80.2899 327.982C79.9755 324.6 79.7409 321.222 79.5049 317.821L79.5049 317.821L76.9989 281.787L76.9981 281.777L76.997 281.767C76.7207 279.277 76.7532 276.763 77.0936 274.281M119.307 267.33C119.307 267.33 119.307 267.33 119.307 267.33L119.593 266.92M119.307 267.33L119.593 266.92M119.307 267.33C113.978 263.61 107.082 262.897 100.441 263.054M119.593 266.92C114.127 263.104 107.093 262.397 100.428 262.554M100.428 262.554L100.442 263.054C100.442 263.054 100.442 263.054 100.441 263.054M100.428 262.554C99.0419 262.594 97.3672 262.528 95.5788 262.457C91.1149 262.279 85.9428 262.074 82.7821 263.427M100.428 262.554L100.44 263.054C100.44 263.054 100.441 263.054 100.441 263.054M100.441 263.054C99.2105 263.089 97.7628 263.042 96.2296 262.983C96.0074 262.974 95.7834 262.965 95.5578 262.956C94.2197 262.903 92.8264 262.848 91.4424 262.832C88.1866 262.796 85.0858 262.985 82.9803 263.886M82.7821 263.427L82.9818 263.885C82.9813 263.886 82.9808 263.886 82.9803 263.886M82.7821 263.427C79.2801 264.953 77.255 270.768 76.6 274.2M82.7821 263.427L82.9788 263.887C82.9793 263.886 82.9798 263.886 82.9803 263.886M82.9803 263.886C81.3962 264.577 80.0823 266.278 79.0716 268.32C78.0723 270.34 77.4154 272.601 77.0936 274.281M76.6 274.2L77.0954 274.268C77.0948 274.272 77.0942 274.277 77.0936 274.281M76.6 274.2L77.0912 274.294C77.092 274.289 77.0928 274.285 77.0936 274.281" stroke="white" stroke-opacity="0.5" stroke-miterlimit="3.32551"/>
<path d="M128.189 366.187C128.041 366.143 127.908 366.074 127.802 366.007C127.36 365.727 126.867 365.161 126.781 364.505C125.851 357.663 120.4 351.962 113.978 349.181C107.56 346.402 100.225 346.246 93.181 346.915L93.1808 346.915C87.8704 347.418 82.2599 348.684 77.5047 351.048C72.7521 353.412 68.8844 356.855 66.9863 361.704L66.9856 361.706C66.6121 362.65 66.3236 363.624 66.0281 364.621C65.9653 364.833 65.9022 365.046 65.8379 365.26C65.4746 366.469 65.0757 367.7 64.4869 368.864L64.486 368.866C63.8343 370.142 62.9807 371.282 62.1416 372.378C62.082 372.456 62.0225 372.533 61.9631 372.611C61.1784 373.635 60.4184 374.626 59.8044 375.704C57.5381 379.698 57.4265 384.634 58.2617 389.26C60.5104 401.579 68.9473 412.156 79.2255 419.502C89.505 426.85 101.533 431.249 113.592 435.234C145.45 445.738 178.136 453.541 211.303 458.562C211.303 458.562 211.303 458.562 211.304 458.562L128.189 366.187ZM128.189 366.187C128.187 367.597 128.797 369.036 129.651 370.286C130.699 371.82 132.173 373.16 133.581 373.946C134.502 374.46 135.488 374.906 136.449 375.34C136.9 375.544 137.346 375.746 137.778 375.951C139.151 376.604 140.426 377.313 141.481 378.309C141.89 378.695 142.259 379.117 142.646 379.559C142.723 379.648 142.801 379.737 142.881 379.827C143.347 380.356 143.848 380.901 144.44 381.368L144.455 381.379L144.47 381.39C146.024 382.439 147.773 383.167 149.613 383.531C171.878 389.561 193.032 399.128 214.133 408.672C214.133 408.672 214.133 408.672 214.133 408.672L232.495 416.984L232.495 416.984C232.875 417.155 233.304 417.401 233.785 417.676L233.796 417.683C234.264 417.951 234.774 418.243 235.286 418.486C236.274 418.954 237.472 419.341 238.493 418.774C241.968 416.923 245.941 416.22 249.841 416.765C253.735 417.309 257.358 419.07 260.191 421.797C260.713 422.395 261.31 422.923 261.968 423.367L262.003 423.391L262.042 423.408C263.49 424.06 265.11 424.223 266.658 423.873C267.565 423.755 268.465 423.618 269.36 423.481C272.7 422.974 275.965 422.477 279.203 423.001C283.295 423.663 287.251 426.559 287.639 430.483C287.803 432.176 287.323 433.796 286.546 435.408C285.991 436.559 285.305 437.669 284.613 438.788C284.327 439.251 284.039 439.716 283.76 440.186L283.759 440.187C278.929 448.384 277.317 458.082 279.238 467.4L279.239 467.403C279.498 468.622 279.763 469.906 279.751 471.088C279.74 472.261 279.456 473.256 278.689 473.968C278.095 474.514 277.317 474.769 276.422 474.851C275.521 474.933 274.548 474.835 273.599 474.713C262.423 473.236 251.214 471.74 240.805 467.559C239.045 466.85 237.316 466.065 235.576 465.274C235.101 465.059 234.626 464.843 234.149 464.628C231.928 463.628 229.679 462.655 227.349 461.874L128.189 366.187Z" fill="#464353" stroke="#464353" stroke-miterlimit="3.32551"/>
<path d="M89.7478 213.423L89.7542 213.409L89.7596 213.394C90.1635 212.305 90.7856 211.309 91.5877 210.469C92.2068 209.841 93.0277 209.423 93.9571 209.018C94.1339 208.941 94.3156 208.864 94.5003 208.786C95.2583 208.464 96.0646 208.123 96.7735 207.669L96.7797 207.665L96.7857 207.661C97.2772 207.325 97.6738 206.892 98.0191 206.514C98.1013 206.425 98.1805 206.338 98.2575 206.257C98.677 205.813 99.0681 205.471 99.6077 205.297C100.413 205.039 101.471 204.996 102.703 205.111C103.927 205.226 105.28 205.492 106.653 205.819C107.829 206.098 109.007 206.42 110.123 206.724C110.311 206.775 110.497 206.826 110.681 206.876C111.951 207.221 113.132 207.532 114.087 207.705L114.098 207.707L114.109 207.708C115.397 207.882 116.658 208.216 117.864 208.702C120.689 209.984 122.534 212.884 123.66 215.941L123.66 215.942C126.476 223.576 125.597 231.729 124.443 240.087C124.363 240.666 124.282 241.246 124.201 241.827C123.114 249.587 122.006 257.497 123.773 265.101L123.773 265.101C124.203 266.945 124.795 268.736 125.405 270.502C125.509 270.806 125.615 271.109 125.72 271.411C126.157 272.668 126.59 273.915 126.974 275.176C120.198 275.315 113.493 273.929 106.73 272.531C106.439 272.471 106.147 272.411 105.856 272.351C98.6041 270.855 91.2838 269.421 83.8644 270.008C82.3048 270.127 80.6193 270.413 79.127 271.03C77.8148 271.573 76.6286 272.383 75.8229 273.58C75.5316 273.301 75.2803 272.981 75.0768 272.631C74.7803 272.12 74.5917 271.553 74.5227 270.967C74.4537 270.38 74.5059 269.785 74.6758 269.219C74.8427 268.664 75.1198 268.148 75.4903 267.702C75.9701 267.265 76.4109 266.786 76.8076 266.272L76.8347 266.237L76.8552 266.198C77.2822 265.378 77.497 264.465 77.4801 263.541C78.5629 246.24 82.7169 229.269 89.7478 213.423Z" fill="#38BDF8" stroke="#38BDF8" stroke-miterlimit="3.32551"/>
<path d="M125.188 242.402H303.958C308.083 242.402 311.428 245.747 311.428 249.872V357.917C311.428 362.043 308.083 365.387 303.958 365.387H125.188C121.062 365.387 117.718 362.043 117.718 357.917V249.872C117.718 245.747 121.062 242.402 125.188 242.402Z" fill="#464353" stroke="#464353" stroke-miterlimit="3.32551"/>
<path d="M214.135 309.134C217.029 309.134 219.374 306.789 219.374 303.895C219.374 301.002 217.029 298.656 214.135 298.656C211.242 298.656 208.896 301.002 208.896 303.895C208.896 306.789 211.242 309.134 214.135 309.134Z" fill="white"/>
<path d="M218.874 303.895C218.874 306.513 216.753 308.634 214.135 308.634C211.518 308.634 209.396 306.513 209.396 303.895C209.396 301.278 211.518 299.156 214.135 299.156C216.753 299.156 218.874 301.278 218.874 303.895Z" stroke="white" stroke-opacity="0.5" stroke-miterlimit="3.32551"/>
<path d="M132.598 115.424C132.262 109.634 133.437 103.856 136.006 98.6575L136.042 98.5904C136.922 96.9302 137.852 94.916 138.846 92.7654C139.004 92.4234 139.163 92.0779 139.325 91.7298C140.503 89.1857 141.775 86.493 143.172 83.9535C144.57 81.4126 146.085 79.0416 147.746 77.1366C149.408 75.2304 151.192 73.8196 153.119 73.1529C157.583 71.6734 162.194 70.6868 166.872 70.2107L180.646 75.5069L181.132 74.6456L174.628 69.5877C175.618 69.5353 176.607 69.49 177.596 69.4518L186.868 73.015L187.354 72.1536L183.705 69.3151C191.951 69.3446 200.205 70.4335 206.462 75.3485C207.829 76.4224 209.23 78.2794 210.581 80.6219C211.927 82.9547 213.201 85.729 214.328 88.5982C216.584 94.3435 218.23 100.414 218.685 104L218.686 104.007C219.658 110.859 219.327 117.832 217.711 124.559L215.969 126.215C215.291 124.548 214.772 122.819 214.418 121.053L214.418 121.053L214.416 121.042C213.55 117.171 211.887 113.522 209.534 110.329C207.18 107.136 204.187 104.468 200.745 102.495L200.742 102.494L200.613 102.421L200.612 102.421C196.491 100.1 191.516 100.221 186.978 100.385L186.996 100.884L186.978 100.385L165.306 101.165C160.122 101.352 154.331 101.672 150.117 105.063L150.43 105.452L150.117 105.063C147.271 107.352 145.583 110.716 144.027 113.857C142.992 115.946 141.488 120.861 140.253 125.198C139.632 127.379 139.075 129.431 138.673 130.938C138.504 131.572 138.363 132.109 138.255 132.519C138.05 132.323 137.803 132.113 137.533 131.935C137.154 131.686 136.658 131.452 136.13 131.499C135.871 131.521 135.633 131.608 135.421 131.756C133.874 126.435 132.926 120.957 132.598 115.424Z" fill="#090814" stroke="#090814" stroke-miterlimit="3.32551"/>
</svg>
